<mxfile host="app.diagrams.net" modified="2024-04-03T15:04:39.708Z" agent="Mozilla/5.0 (Windows NT 10.0; Win64; x64; rv:124.0) Gecko/20100101 Firefox/124.0" etag="JBDviYUUVR6Qrz7A-Led" version="24.2.2" type="device">
  <diagram name="PÃ¡gina-1" id="AQis3Hg6DkU5vkPPLNgG">
    <mxGraphModel dx="2227" dy="744" grid="1" gridSize="10" guides="1" tooltips="1" connect="1" arrows="1" fold="1" page="1" pageScale="1" pageWidth="827" pageHeight="1169" math="0" shadow="0">
      <root>
        <mxCell id="0" />
        <mxCell id="1" parent="0" />
        <mxCell id="kRZag-kqWFewV96_-z3r-1" style="edgeStyle=orthogonalEdgeStyle;rounded=0;orthogonalLoop=1;jettySize=auto;html=1;exitX=0;exitY=0;exitDx=0;exitDy=0;entryX=0.25;entryY=0;entryDx=0;entryDy=0;" edge="1" parent="1" source="RFBUqMEd2B99HiIqJ6Cl-3" target="RFBUqMEd2B99HiIqJ6Cl-2">
          <mxGeometry relative="1" as="geometry" />
        </mxCell>
        <mxCell id="kRZag-kqWFewV96_-z3r-2" value="RETURNS NEW URLS (RMI)" style="edgeLabel;html=1;align=center;verticalAlign=middle;resizable=0;points=[];" vertex="1" connectable="0" parent="kRZag-kqWFewV96_-z3r-1">
          <mxGeometry x="0.1934" y="-2" relative="1" as="geometry">
            <mxPoint as="offset" />
          </mxGeometry>
        </mxCell>
        <mxCell id="RFBUqMEd2B99HiIqJ6Cl-3" value="" style="rounded=0;whiteSpace=wrap;html=1;" parent="1" vertex="1">
          <mxGeometry x="450" y="510" width="210" height="110" as="geometry" />
        </mxCell>
        <mxCell id="RFBUqMEd2B99HiIqJ6Cl-32" value="" style="rounded=0;whiteSpace=wrap;html=1;" parent="1" vertex="1">
          <mxGeometry x="437.5" y="520" width="210" height="110" as="geometry" />
        </mxCell>
        <mxCell id="RFBUqMEd2B99HiIqJ6Cl-8" style="edgeStyle=orthogonalEdgeStyle;rounded=0;orthogonalLoop=1;jettySize=auto;html=1;exitX=0.5;exitY=1;exitDx=0;exitDy=0;entryX=0;entryY=0.5;entryDx=0;entryDy=0;" parent="1" source="RFBUqMEd2B99HiIqJ6Cl-2" target="RFBUqMEd2B99HiIqJ6Cl-5" edge="1">
          <mxGeometry relative="1" as="geometry" />
        </mxCell>
        <mxCell id="RFBUqMEd2B99HiIqJ6Cl-9" value="PASSES URL TO CRAWL (RMI)" style="edgeLabel;html=1;align=center;verticalAlign=middle;resizable=0;points=[];" parent="RFBUqMEd2B99HiIqJ6Cl-8" vertex="1" connectable="0">
          <mxGeometry x="-0.0341" y="-1" relative="1" as="geometry">
            <mxPoint as="offset" />
          </mxGeometry>
        </mxCell>
        <mxCell id="RFBUqMEd2B99HiIqJ6Cl-2" value="&lt;div&gt;URL QUEUE&lt;br&gt;(process)&lt;/div&gt;" style="shape=process;whiteSpace=wrap;html=1;backgroundOutline=1;size=0.3333333333333333;" parent="1" vertex="1">
          <mxGeometry x="130" y="500" width="260" height="40" as="geometry" />
        </mxCell>
        <mxCell id="RFBUqMEd2B99HiIqJ6Cl-5" value="&lt;div&gt;DOWNLOADERS&lt;/div&gt;&lt;div&gt;(process)&lt;br&gt;&lt;/div&gt;" style="rounded=0;whiteSpace=wrap;html=1;" parent="1" vertex="1">
          <mxGeometry x="420" y="530" width="210" height="110" as="geometry" />
        </mxCell>
        <mxCell id="RFBUqMEd2B99HiIqJ6Cl-6" value="WEB" style="ellipse;shape=cloud;whiteSpace=wrap;html=1;" parent="1" vertex="1">
          <mxGeometry x="422.5" y="250" width="225" height="160" as="geometry" />
        </mxCell>
        <mxCell id="RFBUqMEd2B99HiIqJ6Cl-12" style="edgeStyle=orthogonalEdgeStyle;rounded=0;orthogonalLoop=1;jettySize=auto;html=1;exitX=0.55;exitY=0.95;exitDx=0;exitDy=0;exitPerimeter=0;entryX=0.457;entryY=0;entryDx=0;entryDy=0;entryPerimeter=0;" parent="1" source="RFBUqMEd2B99HiIqJ6Cl-6" target="RFBUqMEd2B99HiIqJ6Cl-3" edge="1">
          <mxGeometry relative="1" as="geometry" />
        </mxCell>
        <mxCell id="RFBUqMEd2B99HiIqJ6Cl-13" value="webpages" style="text;html=1;align=center;verticalAlign=middle;resizable=0;points=[];autosize=1;strokeColor=none;fillColor=none;" parent="1" vertex="1">
          <mxGeometry x="540" y="428" width="80" height="30" as="geometry" />
        </mxCell>
        <mxCell id="RFBUqMEd2B99HiIqJ6Cl-15" style="edgeStyle=orthogonalEdgeStyle;rounded=0;orthogonalLoop=1;jettySize=auto;html=1;exitX=0;exitY=0.5;exitDx=0;exitDy=0;entryX=0;entryY=0.5;entryDx=0;entryDy=0;" parent="1" source="RFBUqMEd2B99HiIqJ6Cl-14" target="RFBUqMEd2B99HiIqJ6Cl-2" edge="1">
          <mxGeometry relative="1" as="geometry" />
        </mxCell>
        <mxCell id="RFBUqMEd2B99HiIqJ6Cl-16" value="PASSES NEW URLS TO BE CRAWLED (RMI)" style="edgeLabel;html=1;align=center;verticalAlign=middle;resizable=0;points=[];" parent="RFBUqMEd2B99HiIqJ6Cl-15" vertex="1" connectable="0">
          <mxGeometry x="-0.2" y="3" relative="1" as="geometry">
            <mxPoint y="-14" as="offset" />
          </mxGeometry>
        </mxCell>
        <mxCell id="RFBUqMEd2B99HiIqJ6Cl-23" style="edgeStyle=orthogonalEdgeStyle;rounded=0;orthogonalLoop=1;jettySize=auto;html=1;exitX=0.5;exitY=1;exitDx=0;exitDy=0;" parent="1" source="RFBUqMEd2B99HiIqJ6Cl-14" target="RFBUqMEd2B99HiIqJ6Cl-20" edge="1">
          <mxGeometry relative="1" as="geometry">
            <mxPoint x="210" y="840" as="targetPoint" />
          </mxGeometry>
        </mxCell>
        <mxCell id="RFBUqMEd2B99HiIqJ6Cl-24" value="SENDS RESULT (RMI)" style="edgeLabel;html=1;align=center;verticalAlign=middle;resizable=0;points=[];" parent="RFBUqMEd2B99HiIqJ6Cl-23" vertex="1" connectable="0">
          <mxGeometry x="-0.2857" y="1" relative="1" as="geometry">
            <mxPoint as="offset" />
          </mxGeometry>
        </mxCell>
        <mxCell id="RFBUqMEd2B99HiIqJ6Cl-40" style="edgeStyle=orthogonalEdgeStyle;rounded=0;orthogonalLoop=1;jettySize=auto;html=1;exitX=1;exitY=0;exitDx=0;exitDy=0;entryX=-0.004;entryY=0.934;entryDx=0;entryDy=0;entryPerimeter=0;" parent="1" source="RFBUqMEd2B99HiIqJ6Cl-14" target="RFBUqMEd2B99HiIqJ6Cl-34" edge="1">
          <mxGeometry relative="1" as="geometry">
            <mxPoint x="440" y="1080" as="targetPoint" />
          </mxGeometry>
        </mxCell>
        <mxCell id="RFBUqMEd2B99HiIqJ6Cl-41" value="SEARCH (RMI)" style="edgeLabel;html=1;align=center;verticalAlign=middle;resizable=0;points=[];" parent="RFBUqMEd2B99HiIqJ6Cl-40" vertex="1" connectable="0">
          <mxGeometry x="0.488" y="1" relative="1" as="geometry">
            <mxPoint x="-1" y="-57" as="offset" />
          </mxGeometry>
        </mxCell>
        <mxCell id="RFBUqMEd2B99HiIqJ6Cl-14" value="&lt;div&gt;GATEWAY&lt;/div&gt;&lt;div&gt;(process)&lt;br&gt;&lt;/div&gt;" style="ellipse;whiteSpace=wrap;html=1;" parent="1" vertex="1">
          <mxGeometry x="120" y="650" width="180" height="120" as="geometry" />
        </mxCell>
        <mxCell id="RFBUqMEd2B99HiIqJ6Cl-21" style="edgeStyle=orthogonalEdgeStyle;rounded=0;orthogonalLoop=1;jettySize=auto;html=1;entryX=1;entryY=0.5;entryDx=0;entryDy=0;exitX=0.5;exitY=0;exitDx=0;exitDy=0;exitPerimeter=0;" parent="1" source="RFBUqMEd2B99HiIqJ6Cl-20" target="RFBUqMEd2B99HiIqJ6Cl-14" edge="1">
          <mxGeometry relative="1" as="geometry">
            <mxPoint x="380" y="720" as="sourcePoint" />
          </mxGeometry>
        </mxCell>
        <mxCell id="RFBUqMEd2B99HiIqJ6Cl-22" value="SENDS QUERY (RMI)" style="edgeLabel;html=1;align=center;verticalAlign=middle;resizable=0;points=[];" parent="RFBUqMEd2B99HiIqJ6Cl-21" vertex="1" connectable="0">
          <mxGeometry x="-0.0737" y="1" relative="1" as="geometry">
            <mxPoint x="16" y="14" as="offset" />
          </mxGeometry>
        </mxCell>
        <mxCell id="RFBUqMEd2B99HiIqJ6Cl-20" value="Client" style="shape=umlActor;verticalLabelPosition=bottom;verticalAlign=top;html=1;outlineConnect=0;" parent="1" vertex="1">
          <mxGeometry x="330" y="760" width="30" height="60" as="geometry" />
        </mxCell>
        <mxCell id="RFBUqMEd2B99HiIqJ6Cl-27" value="Client" style="shape=umlActor;verticalLabelPosition=bottom;verticalAlign=top;html=1;outlineConnect=0;" parent="1" vertex="1">
          <mxGeometry x="340" y="770" width="30" height="60" as="geometry" />
        </mxCell>
        <mxCell id="RFBUqMEd2B99HiIqJ6Cl-28" value="Client" style="shape=umlActor;verticalLabelPosition=bottom;verticalAlign=top;html=1;outlineConnect=0;" parent="1" vertex="1">
          <mxGeometry x="350" y="780" width="30" height="60" as="geometry" />
        </mxCell>
        <mxCell id="RFBUqMEd2B99HiIqJ6Cl-29" value="Client" style="shape=umlActor;verticalLabelPosition=bottom;verticalAlign=top;html=1;outlineConnect=0;" parent="1" vertex="1">
          <mxGeometry x="360" y="790" width="30" height="60" as="geometry" />
        </mxCell>
        <mxCell id="RFBUqMEd2B99HiIqJ6Cl-31" value="" style="rounded=1;whiteSpace=wrap;html=1;" parent="1" vertex="1">
          <mxGeometry x="480" y="700" width="265" height="380" as="geometry" />
        </mxCell>
        <mxCell id="RFBUqMEd2B99HiIqJ6Cl-33" value="" style="rounded=1;whiteSpace=wrap;html=1;" parent="1" vertex="1">
          <mxGeometry x="505" y="710" width="265" height="380" as="geometry" />
        </mxCell>
        <mxCell id="RFBUqMEd2B99HiIqJ6Cl-34" value="" style="rounded=1;whiteSpace=wrap;html=1;" parent="1" vertex="1">
          <mxGeometry x="480" y="720" width="265" height="380" as="geometry" />
        </mxCell>
        <mxCell id="RFBUqMEd2B99HiIqJ6Cl-35" style="edgeStyle=orthogonalEdgeStyle;rounded=0;orthogonalLoop=1;jettySize=auto;html=1;exitX=0;exitY=0;exitDx=0;exitDy=0;entryX=0.906;entryY=0.167;entryDx=0;entryDy=0;entryPerimeter=0;" parent="1" source="RFBUqMEd2B99HiIqJ6Cl-31" target="RFBUqMEd2B99HiIqJ6Cl-14" edge="1">
          <mxGeometry relative="1" as="geometry">
            <Array as="points">
              <mxPoint x="480" y="650" />
              <mxPoint x="283" y="650" />
            </Array>
          </mxGeometry>
        </mxCell>
        <mxCell id="RFBUqMEd2B99HiIqJ6Cl-36" value="SENDS RESULT (RMI)" style="edgeLabel;html=1;align=center;verticalAlign=middle;resizable=0;points=[];" parent="RFBUqMEd2B99HiIqJ6Cl-35" vertex="1" connectable="0">
          <mxGeometry x="0.4366" y="5" relative="1" as="geometry">
            <mxPoint x="33" y="5" as="offset" />
          </mxGeometry>
        </mxCell>
        <mxCell id="RFBUqMEd2B99HiIqJ6Cl-37" style="edgeStyle=orthogonalEdgeStyle;rounded=0;orthogonalLoop=1;jettySize=auto;html=1;exitX=0.5;exitY=1;exitDx=0;exitDy=0;entryX=0.789;entryY=0.003;entryDx=0;entryDy=0;entryPerimeter=0;" parent="1" source="RFBUqMEd2B99HiIqJ6Cl-5" target="RFBUqMEd2B99HiIqJ6Cl-31" edge="1">
          <mxGeometry relative="1" as="geometry" />
        </mxCell>
        <mxCell id="RFBUqMEd2B99HiIqJ6Cl-38" value="SENDS DATA (MULTICAST)" style="edgeLabel;html=1;align=center;verticalAlign=middle;resizable=0;points=[];" parent="RFBUqMEd2B99HiIqJ6Cl-37" vertex="1" connectable="0">
          <mxGeometry x="0.1277" y="-1" relative="1" as="geometry">
            <mxPoint x="-9" y="-11" as="offset" />
          </mxGeometry>
        </mxCell>
        <mxCell id="RFBUqMEd2B99HiIqJ6Cl-43" value="LISTENER" style="shape=card;whiteSpace=wrap;html=1;" parent="1" vertex="1">
          <mxGeometry x="502.5" y="740" width="80" height="100" as="geometry" />
        </mxCell>
        <mxCell id="RFBUqMEd2B99HiIqJ6Cl-44" value="WORKER" style="shape=card;whiteSpace=wrap;html=1;" parent="1" vertex="1">
          <mxGeometry x="620" y="740" width="80" height="100" as="geometry" />
        </mxCell>
        <mxCell id="RFBUqMEd2B99HiIqJ6Cl-46" value="SENDER" style="shape=card;whiteSpace=wrap;html=1;" parent="1" vertex="1">
          <mxGeometry x="502.5" y="890" width="80" height="100" as="geometry" />
        </mxCell>
        <mxCell id="RFBUqMEd2B99HiIqJ6Cl-49" value="" style="curved=1;endArrow=classic;html=1;rounded=0;entryX=0;entryY=0;entryDx=55;entryDy=0;entryPerimeter=0;" parent="1" target="RFBUqMEd2B99HiIqJ6Cl-43" edge="1">
          <mxGeometry width="50" height="50" relative="1" as="geometry">
            <mxPoint x="680" y="700" as="sourcePoint" />
            <mxPoint x="605" y="710" as="targetPoint" />
            <Array as="points">
              <mxPoint x="605" y="760" />
              <mxPoint x="555" y="710" />
            </Array>
          </mxGeometry>
        </mxCell>
        <mxCell id="RFBUqMEd2B99HiIqJ6Cl-54" style="edgeStyle=orthogonalEdgeStyle;rounded=0;orthogonalLoop=1;jettySize=auto;html=1;exitX=1;exitY=0.5;exitDx=0;exitDy=0;exitPerimeter=0;entryX=0.125;entryY=0.5;entryDx=0;entryDy=0;entryPerimeter=0;" parent="1" source="RFBUqMEd2B99HiIqJ6Cl-43" target="RFBUqMEd2B99HiIqJ6Cl-44" edge="1">
          <mxGeometry relative="1" as="geometry" />
        </mxCell>
        <mxCell id="RFBUqMEd2B99HiIqJ6Cl-55" value="" style="endArrow=none;dashed=1;html=1;rounded=0;" parent="1" edge="1">
          <mxGeometry width="50" height="50" relative="1" as="geometry">
            <mxPoint x="580" y="890" as="sourcePoint" />
            <mxPoint x="630" y="840" as="targetPoint" />
          </mxGeometry>
        </mxCell>
        <mxCell id="RFBUqMEd2B99HiIqJ6Cl-56" value="SQL DB" style="shape=cylinder3;whiteSpace=wrap;html=1;boundedLbl=1;backgroundOutline=1;size=15;" parent="1" vertex="1">
          <mxGeometry x="620" y="890" width="100" height="130" as="geometry" />
        </mxCell>
        <mxCell id="RFBUqMEd2B99HiIqJ6Cl-58" style="edgeStyle=orthogonalEdgeStyle;rounded=0;orthogonalLoop=1;jettySize=auto;html=1;exitX=0.5;exitY=1;exitDx=0;exitDy=0;exitPerimeter=0;entryX=0.5;entryY=0;entryDx=0;entryDy=0;entryPerimeter=0;" parent="1" source="RFBUqMEd2B99HiIqJ6Cl-44" target="RFBUqMEd2B99HiIqJ6Cl-56" edge="1">
          <mxGeometry relative="1" as="geometry" />
        </mxCell>
        <mxCell id="RFBUqMEd2B99HiIqJ6Cl-62" value="BLOOM" style="ellipse;whiteSpace=wrap;html=1;" parent="1" vertex="1">
          <mxGeometry x="305" y="500" width="80" height="40" as="geometry" />
        </mxCell>
        <mxCell id="RFBUqMEd2B99HiIqJ6Cl-63" value="TF-IDF" style="ellipse;whiteSpace=wrap;html=1;" parent="1" vertex="1">
          <mxGeometry x="630" y="980" width="80" height="40" as="geometry" />
        </mxCell>
        <mxCell id="RFBUqMEd2B99HiIqJ6Cl-64" value="INDEX STORAGE BARREL&lt;br&gt;(process)" style="text;html=1;align=center;verticalAlign=middle;whiteSpace=wrap;rounded=0;" parent="1" vertex="1">
          <mxGeometry x="540" y="1070" width="157.5" height="30" as="geometry" />
        </mxCell>
        <mxCell id="kRZag-kqWFewV96_-z3r-4" value="" style="curved=1;endArrow=classic;html=1;rounded=0;entryX=0;entryY=1;entryDx=0;entryDy=-15;entryPerimeter=0;" edge="1" parent="1">
          <mxGeometry width="50" height="50" relative="1" as="geometry">
            <mxPoint x="490" y="1070" as="sourcePoint" />
            <mxPoint x="630" y="995" as="targetPoint" />
            <Array as="points">
              <mxPoint x="540" y="1070" />
              <mxPoint x="490" y="1020" />
            </Array>
          </mxGeometry>
        </mxCell>
      </root>
    </mxGraphModel>
  </diagram>
</mxfile>
